{"title":"Scooby-Doo Meets Batman dvd rip","uid":9143074,"size":776698044,"categoryP":"video","categoryS":"tv_shows","magnet":"?xt=urn:btih:51e1dbb19ee193858a5bedb673b4aef789fff4d0&amp;dn=Scooby-Doo+Meets+Batman+dvd+rip&amp;tr=udp%3A%2F%2Ftracker.openbittorrent.com%3A80&amp;tr=udp%3A%2F%2Fopen.demonii.com%3A1337&amp;tr=udp%3A%2F%2Ftracker.coppersurfer.tk%3A6969&amp;tr=udp%3A%2F%2Fexodus.desync.com%3A6969","seeders":3,"leechers":1,"uploader":"sonicx33","files":3,"time":1383543152,"description":"Scooby-Doo Meets Batman\n\n\n\nMovie Info\n\nThe Joker and The Penguin have joined forces to steal Professor Flakey's new flying suit, and the only detective dogged enough to crack the case is a sleuthing pooch named Scooby Doo in this animated teaming of two legendary crime-fighting teams. The only thing more dangerous than a landlocked criminal is one that has taken to the skies, and unless Batman, Robin, and Mystery Inc. can get to the bottom of the case quick, Gotham may not be the only city facing disaster. ~ Jason Buchanan, Rovi \n\n\n\nFormat                                   : MPEG-4\nFormat profile                           : Base Media / Version 2\nCodec ID                                 : mp42\nFile size                                : 735 MiB\nDuration                                 : 1h 18mn\nOverall bit rate mode                    : Variable\nOverall bit rate                         : 1 308 Kbps\nEncoded date                             : UTC 2013-11-02 01:01:41\nTagged date                              : UTC 2013-11-02 01:25:06\nWriting application                      : HandBrake 0.9.9 2013052900\n\nVideo\nID                                       : 1\nFormat                                   : AVC\nFormat/Info                              : Advanced Video Codec\nFormat profile                           : &lt;a class=&quot;__cf_email__&quot; href=&quot;/cdn-cgi/l/email-protection&quot; data-cfemail=&quot;ce83afa7a08e82fbe0fc&quot;&gt;[email&amp;#160;protected]&lt;/a&gt;&lt;script cf-hash='f9e31' type=&quot;text/javascript&quot;&gt;\n/* &lt;![CDATA[ */!function(){try{var t=&quot;currentScript&quot;in document?document.currentScript:function(){for(var t=document.getElementsByTagName(&quot;script&quot;),e=t.length;e--;)if(t[e].getAttribute(&quot;cf-hash&quot;))return t[e]}();if(t&amp;&amp;t.previousSibling){var e,r,n,i,c=t.previousSibling,a=c.getAttribute(&quot;data-cfemail&quot;);if(a){for(e=&quot;&quot;,r=parseInt(a.substr(0,2),16),n=2;a.length-n;n+=2)i=parseInt(a.substr(n,2),16)^r,e+=String.fromCharCode(i);e=document.createTextNode(e),c.parentNode.replaceChild(e,c)}}}catch(u){}}();/* ]]&gt; */&lt;/script&gt;\nFormat settings, CABAC                   : Yes\nFormat settings, ReFrames                : 4 frames\nCodec ID                                 : avc1\nCodec ID/Info                            : Advanced Video Coding\nDuration                                 : 1h 18mn\nBit rate mode                            : Variable\nBit rate                                 : 1 187 Kbps\nWidth                                    : 720 pixels\nHeight                                   : 576 pixels\nDisplay aspect ratio                     : 4:3\nOriginal display aspect ratio            : 4:3\nFrame rate mode                          : Variable\nFrame rate                               : 25.000 fps\nMinimum frame rate                       : 8.333 fps\nMaximum frame rate                       : 86.622 fps\nStandard                                 : PAL\nColor space                              : YUV\nChroma subsampling                       : 4:2:0\nBit depth                                : 8 bits\nScan type                                : Progressive\nBits/(Pixel*Frame)                       : 0.115\nStream size                              : 667 MiB (91%)\nWriting library                          : x264 core 130 r2273 b3065e6\nEncoding settings                        : cabac=1 // deblock=1:0:0 / \nEncoded date                             : UTC 2013-11-02 01:01:41\nTagged date                              : UTC 2013-11-02 01:25:06\nColor primaries                          : BT.601 PAL\nTransfer characteristics                 : BT.709\nMatrix coefficients                      : BT.601\n\nAudio\nID                                       : 2\nFormat                                   : AAC\nFormat/Info                              : Advanced Audio Codec\nFormat profile                           : LC\nCodec ID                                 : 40\nDuration                                 : 1h 18mn\nBit rate mode                            : Variable\nBit rate                                 : 112 Kbps\nMaximum bit rate                         : 179 Kbps\nChannel(s)                               : 2 channels\nChannel positions                        : Front: L R\nSampling rate                            : 48.0 KHz\nCompression mode                         : Lossy\nDelay relative to video                  : 160ms\nStream size                              : 62.9 MiB (9%)\nLanguage                                 : English\nEncoded date                             : UTC 2013-11-02 01:01:41\nTagged date                              : UTC 2013-11-02 01:25:05\n","torrent":{"xt":"urn:btih:51e1dbb19ee193858a5bedb673b4aef789fff4d0","amp;dn":"Scooby-Doo+Meets+Batman+dvd+rip","amp;tr":["udp%3A%2F%2Ftracker.openbittorrent.com%3A80","udp%3A%2F%2Fopen.demonii.com%3A1337","udp%3A%2F%2Ftracker.coppersurfer.tk%3A6969","udp%3A%2F%2Fexodus.desync.com%3A6969"],"infoHash":"51e1dbb19ee193858a5bedb673b4aef789fff4d0","infoHashBuffer":{"type":"Buffer","data":[81,225,219,177,158,225,147,133,138,91,237,182,115,180,174,247,137,255,244,208]},"announce":[],"urlList":[]}}